<mxfile host="app.diagrams.net" modified="2023-12-05T07:27:45.567Z" agent="Mozilla/5.0 (X11; Linux x86_64) AppleWebKit/537.36 (KHTML, like Gecko) Chrome/110.0.0.0 Safari/537.36 Edg/110.0.1587.41" version="22.1.5" etag="AYz3DMp2fx1jXAjhkAzt" type="github">
  <diagram name="第 1 页" id="RQCIpxSvMSg2-ONpFbyy">
    <mxGraphModel>
      <root>
        <mxCell id="0" />
        <mxCell id="1" parent="0" />
      </root>
    </mxGraphModel>
  </diagram>
</mxfile>
